<svg width="51" height="50" viewBox="0 0 51 50" fill="none" xmlns="http://www.w3.org/2000/svg">
<path d="M6.74498 12.5H44.245V37.5H6.74498V12.5ZM25.495 18.75C27.1526 18.75 28.7423 19.4085 29.9144 20.5806C31.0865 21.7527 31.745 23.3424 31.745 25C31.745 26.6576 31.0865 28.2473 29.9144 29.4194C28.7423 30.5915 27.1526 31.25 25.495 31.25C23.8374 31.25 22.2477 30.5915 21.0756 29.4194C19.9035 28.2473 19.245 26.6576 19.245 25C19.245 23.3424 19.9035 21.7527 21.0756 20.5806C22.2477 19.4085 23.8374 18.75 25.495 18.75ZM15.0783 16.6667C15.0783 17.7717 14.6393 18.8315 13.8579 19.6129C13.0765 20.3943 12.0167 20.8333 10.9116 20.8333V29.1667C12.0167 29.1667 13.0765 29.6057 13.8579 30.3871C14.6393 31.1685 15.0783 32.2283 15.0783 33.3333H35.9116C35.9116 32.2283 36.3506 31.1685 37.132 30.3871C37.9134 29.6057 38.9732 29.1667 40.0783 29.1667V20.8333C38.9732 20.8333 37.9134 20.3943 37.132 19.6129C36.3506 18.8315 35.9116 17.7717 35.9116 16.6667H15.0783Z" fill="#FAA724"/>
</svg>
