<svg width="63" height="50" viewBox="0 0 63 50" fill="none" xmlns="http://www.w3.org/2000/svg">
<g clip-path="url(#clip0_2662_2248)">
<path d="M52.4911 4.00391C51.5731 3.08594 51.5731 1.60157 52.4911 0.693364C53.409 -0.214839 54.8934 -0.224604 55.8016 0.693364L62.0516 6.94336C62.4911 7.38282 62.7352 7.97852 62.7352 8.60352C62.7352 9.22852 62.4911 9.82422 62.0516 10.2637L55.8016 16.5137C54.8837 17.4316 53.3993 17.4316 52.4911 16.5137C51.5829 15.5957 51.5731 14.1113 52.4911 13.2031L54.7372 10.957L37.745 10.9375C36.4462 10.9375 35.4012 9.89258 35.4012 8.59375C35.4012 7.29493 36.4462 6.25001 37.745 6.25001H54.7469L52.4911 4.00391ZM10.4989 36.8164L8.25279 39.0625H25.245C26.5438 39.0625 27.5887 40.1074 27.5887 41.4063C27.5887 42.7051 26.5438 43.75 25.245 43.75H8.24303L10.4891 45.9961C11.4071 46.9141 11.4071 48.3984 10.4891 49.3066C9.57115 50.2148 8.08678 50.2246 7.17857 49.3066L0.928574 43.0664C0.48912 42.627 0.24498 42.0313 0.24498 41.4063C0.24498 40.7813 0.48912 40.1856 0.928574 39.7461L7.17857 33.4961C8.09654 32.5781 9.58092 32.5781 10.4891 33.4961C11.3973 34.4141 11.4071 35.8984 10.4891 36.8066L10.4989 36.8164ZM9.61998 6.25001H33.243C32.8817 6.95313 32.6669 7.74415 32.6669 8.59375C32.6669 11.3965 34.9422 13.6719 37.745 13.6719H49.2098C48.8192 15.332 49.2684 17.1387 50.5575 18.4375C52.5399 20.4199 55.7528 20.4199 57.7352 18.4375L59.62 16.5527V37.5C59.62 40.9473 56.8172 43.75 53.37 43.75H29.7469C30.1083 43.0469 30.3231 42.2559 30.3231 41.4063C30.3231 38.6035 28.0477 36.3281 25.245 36.3281H13.7801C14.1708 34.668 13.7215 32.8613 12.4325 31.5625C10.4501 29.5801 7.23717 29.5801 5.25475 31.5625L3.36998 33.4473V12.5C3.36998 9.05274 6.17271 6.25001 9.61998 6.25001ZM15.87 12.5H9.61998V18.75C13.0672 18.75 15.87 15.9473 15.87 12.5ZM53.37 31.25C49.9227 31.25 47.12 34.0527 47.12 37.5H53.37V31.25ZM31.495 34.375C36.6708 34.375 40.87 30.1758 40.87 25C40.87 19.8242 36.6708 15.625 31.495 15.625C26.3192 15.625 22.12 19.8242 22.12 25C22.12 30.1758 26.3192 34.375 31.495 34.375Z" fill="#FAA724"/>
</g>
<defs>
<clipPath id="clip0_2662_2248">
<rect width="62.5" height="50" fill="white" transform="translate(0.24498)"/>
</clipPath>
</defs>
</svg>
