<svg width="51" height="50" viewBox="0 0 51 50" fill="none" xmlns="http://www.w3.org/2000/svg">
<path d="M12.4208 9.70208C13.2248 9.48406 14.0544 9.37407 14.8875 9.375H36.7624C37.6166 9.375 38.4416 9.48958 39.227 9.70208C38.7076 8.66454 37.9096 7.79207 36.9224 7.18238C35.9352 6.57269 34.7978 6.24985 33.6374 6.25H18.0125C16.8518 6.24946 15.7139 6.57212 14.7263 7.18184C13.7387 7.79155 12.9404 8.66422 12.4208 9.70208ZM5.51245 25C5.51245 23.3424 6.17093 21.7527 7.34303 20.5806C8.51514 19.4085 10.1048 18.75 11.7625 18.75H39.8875C41.5451 18.75 43.1348 19.4085 44.3069 20.5806C45.479 21.7527 46.1375 23.3424 46.1375 25V37.5C46.1375 39.1576 45.479 40.7473 44.3069 41.9194C43.1348 43.0915 41.5451 43.75 39.8875 43.75H11.7625C10.1048 43.75 8.51514 43.0915 7.34303 41.9194C6.17093 40.7473 5.51245 39.1576 5.51245 37.5V25ZM11.7625 15.625C10.9083 15.625 10.0833 15.7396 9.29578 15.9521C9.81537 14.9142 10.6137 14.0415 11.6013 13.4318C12.5889 12.8221 13.7268 12.4995 14.8875 12.5H36.7624C37.9228 12.4998 39.0602 12.8227 40.0474 13.4324C41.0346 14.0421 41.8326 14.9145 42.352 15.9521C41.5486 15.7342 40.7198 15.6243 39.8875 15.625H11.7625Z" fill="#FAA724"/>
</svg>
