<svg width="51" height="50" viewBox="0 0 51 50" fill="none" xmlns="http://www.w3.org/2000/svg">
<g clip-path="url(#clip0_2662_2252)">
<path d="M42.4916 37.4999C44.7833 37.4999 46.6374 35.6249 46.6374 33.3333L46.6583 12.4999C46.6583 10.2083 44.7833 8.33325 42.4916 8.33325H9.15828C6.86662 8.33325 4.99162 10.2083 4.99162 12.4999V33.3333C4.99162 35.6249 6.86662 37.4999 9.15828 37.4999H2.90828C1.76245 37.4999 0.824951 38.4374 0.824951 39.5833C0.824951 40.7291 1.76245 41.6666 2.90828 41.6666H48.7416C49.8875 41.6666 50.825 40.7291 50.825 39.5833C50.825 38.4374 49.8875 37.4999 48.7416 37.4999H42.4916ZM11.2416 12.4999H40.4083C41.5541 12.4999 42.4916 13.4374 42.4916 14.5833V31.2499C42.4916 32.3958 41.5541 33.3333 40.4083 33.3333H11.2416C10.0958 33.3333 9.15828 32.3958 9.15828 31.2499V14.5833C9.15828 13.4374 10.0958 12.4999 11.2416 12.4999Z" fill="#FAA724"/>
</g>
<defs>
<clipPath id="clip0_2662_2252">
<rect width="50" height="50" fill="white" transform="translate(0.824951)"/>
</clipPath>
</defs>
</svg>
